<?xml version="1.0" encoding="UTF-8"?>
<svg version="1.1" xmlns="http://www.w3.org/2000/svg" width="224" height="205">
<path d="M0 0 C0.75029895 -0.0060911 1.5005979 -0.01218221 2.27363318 -0.01845789 C4.771502 -0.03502062 7.26885729 -0.03032183 9.76676941 -0.0255127 C11.56436693 -0.03285701 13.36195973 -0.04144429 15.1595459 -0.05117798 C20.03159016 -0.07336616 24.90346514 -0.07632595 29.77555299 -0.07443047 C33.84842985 -0.07431062 37.92127103 -0.08288049 41.99413794 -0.09120798 C51.60684929 -0.1104329 61.2194738 -0.11332941 70.8321991 -0.10656738 C80.73488868 -0.09992927 90.63720554 -0.12278387 100.53981954 -0.15988111 C109.05386871 -0.19061423 117.56779822 -0.20193416 126.08190173 -0.1980443 C131.16163691 -0.1959803 136.24108209 -0.20140199 141.32076454 -0.22593689 C146.10046648 -0.24826075 150.8795642 -0.24627939 155.65926933 -0.22600937 C157.40792946 -0.22260913 159.15663071 -0.22764571 160.90523529 -0.24199295 C171.09561515 -0.31979866 180.26533355 -0.21717866 188.12843037 7.16788483 C193.89845481 13.36546385 196.35159766 20.05583458 196.38059998 28.45281982 C196.38631012 29.44797104 196.39202026 30.44312225 196.39790344 31.46842957 C196.39958023 33.08936272 196.39958023 33.08936272 196.40129089 34.74304199 C196.4062558 35.88999039 196.4112207 37.03693878 196.41633606 38.21864319 C196.4309364 42.01161297 196.43775623 45.80454092 196.44328308 49.59753418 C196.44903634 52.23683676 196.45479406 54.87613933 196.46055603 57.51544189 C196.47011903 62.34311453 196.47602092 67.17077817 196.47905278 71.9984591 C196.4835295 79.08624647 196.50106426 86.17384061 196.53005338 93.26156926 C196.5543454 99.41624 196.56200052 105.57083147 196.56372833 111.72554779 C196.5667505 114.33615928 196.57476425 116.94677004 196.58791351 119.55735016 C196.6050189 123.21444733 196.60308242 126.871077 196.59660339 130.52819824 C196.60581818 131.60072342 196.61503296 132.6732486 196.62452698 133.77827454 C196.56543886 144.45639535 193.9462682 152.76225405 186.24015808 160.39440918 C180.57709704 164.40534617 175.37390817 166.53143145 168.42262268 166.49879456 C167.45553375 166.49702209 166.48844482 166.49524963 165.49205017 166.49342346 C164.43745605 166.48661057 163.38286194 166.47979767 162.29631042 166.47277832 C159.98335313 166.46666242 157.67039533 166.46073565 155.35743713 166.45497131 C154.13073681 166.45029909 152.90403648 166.44562687 151.64016342 166.44081306 C145.14093265 166.42164692 138.64173966 166.43682502 132.14250183 166.44714355 C123.87327318 166.45991756 115.60451795 166.46201326 107.33537292 166.4185791 C100.65197105 166.38359192 93.96976055 166.39065667 87.28628922 166.42214775 C84.7434884 166.4270658 82.20061807 166.41782032 79.65792465 166.39393806 C76.09092667 166.36240901 72.52731765 166.38078046 68.96037292 166.41027832 C67.91792419 166.38929581 66.87547546 166.36831329 65.80143738 166.34669495 C57.46103828 166.49897644 53.18454643 169.78110057 47.24015808 175.39440918 C46.26304871 176.18589355 45.28593933 176.97737793 44.27922058 177.79284668 C39.55893348 181.65767722 34.8579389 185.54369103 30.17765808 189.45690918 C25.60651144 193.27810207 20.9816349 197.01975007 16.29875183 200.70300293 C14.24148997 202.31427599 14.24148997 202.31427599 12.66203308 204.10534668 C11.24015808 205.39440918 11.24015808 205.39440918 8.05265808 205.58190918 C7.12453308 205.52003418 6.19640808 205.45815918 5.24015808 205.39440918 C3.4512317 200.75575445 2.9451118 196.76748088 2.82609558 191.80847168 C2.80672943 191.10668793 2.78736328 190.40490417 2.76741028 189.68185425 C2.70808239 187.46115919 2.66141891 185.24041095 2.61515808 183.01940918 C2.57693506 181.50506484 2.53788086 179.99074124 2.49797058 178.47644043 C2.40242074 174.78262087 2.31821871 171.08864448 2.24015808 167.39440918 C1.50772888 167.28048828 0.77529968 167.16656738 0.02067566 167.04919434 C-9.24465773 165.5071458 -16.35367515 162.93455539 -22.25984192 155.26940918 C-25.30777056 150.85700086 -27.006686 147.56662322 -27.03399658 142.12130737 C-27.04895927 140.51921921 -27.04895927 140.51921921 -27.06422424 138.88476562 C-27.06488892 137.71796265 -27.06555359 136.55115967 -27.0662384 135.34899902 C-27.07456192 134.11602081 -27.08288544 132.8830426 -27.09146118 131.61270142 C-27.11143515 128.23213989 -27.12220381 124.85182475 -27.12728763 121.47122526 C-27.13093488 119.35580218 -27.13717705 117.24040264 -27.14428902 115.12498856 C-27.16878486 107.73480442 -27.18183433 100.34469042 -27.18537903 92.95446777 C-27.18900773 86.0834098 -27.21885441 79.21280033 -27.26078361 72.34187925 C-27.29558057 66.43084778 -27.31092914 60.51996415 -27.31162506 54.60883105 C-27.31241512 51.08387537 -27.32102601 47.55937601 -27.34962273 44.03452682 C-27.38086848 40.09490733 -27.3716988 36.15592114 -27.35920715 32.21618652 C-27.37404144 31.06152893 -27.38887573 29.90687134 -27.40415955 28.71722412 C-27.33032103 20.51197192 -25.67998771 13.66589852 -20.00437069 7.48160362 C-14.16947831 1.98838353 -7.91390096 -0.0612215 0 0 Z M28.80265808 72.89440918 C26.12373063 77.1806931 25.41199072 81.42540503 26.24015808 86.39440918 C28.24251091 90.36819047 30.5436603 92.93007733 34.24015808 95.39440918 C39.41313427 96.09280157 43.92747317 95.95698843 48.74015808 93.89440918 C51.97526399 90.65930327 53.52153053 87.92176276 54.24015808 83.39440918 C54.19734856 79.17767087 53.40681947 75.85426296 50.74797058 72.52722168 C43.7383996 66.01610908 35.56078041 65.96300166 28.80265808 72.89440918 Z M75.24015808 70.39440918 C71.65306815 73.98149911 70.9539397 76.97743198 70.74015808 81.89440918 C70.91952585 86.77719854 71.90487171 89.67794723 75.24015808 93.39440918 C79.71291039 96.37624405 83.99756496 95.87170841 89.24015808 95.39440918 C93.40409514 93.88830429 95.52365322 91.36811568 97.57609558 87.42175293 C99.24913636 82.31405784 97.86292242 77.73958015 95.67765808 73.01940918 C92.59026395 69.69452319 89.59583518 68.46918664 85.24015808 67.39440918 C81.61799192 67.39440918 78.42755329 68.74401878 75.24015808 70.39440918 Z M117.86515808 72.45690918 C114.62872991 76.31572738 114.9101469 79.73569006 114.95500183 84.62487793 C115.35004397 88.46165701 116.64507207 90.583066 119.24015808 93.39440918 C123.88824225 96.30828407 128.93579132 96.03282479 134.24015808 95.39440918 C138.15759103 93.19085315 140.45940067 90.51826845 142.24015808 86.39440918 C142.77381981 81.59145364 142.78171008 79.43739821 140.55265808 75.14440918 C137.45831238 71.46464673 134.99139039 68.96546319 130.36515808 67.45690918 C125.28426535 67.35529133 121.66314727 69.15865541 117.86515808 72.45690918 Z " fill="#69D1F8" transform="translate(26.759841918945313,-0.3944091796875)"/>
<path d="M0 0 C0.5775 0.763125 1.155 1.52625 1.75 2.3125 C4.45057835 5.5381908 6.32580207 7.74204201 10.5859375 8.3984375 C16.14598461 8.35171442 20.18374377 8.12405809 25 5 C25 5.99 25 6.98 25 8 C24.01 8.495 24.01 8.495 23 9 C23.33 9.66 23.66 10.32 24 11 C23.34 11 22.68 11 22 11 C21.67 11.66 21.34 12.32 21 13 C20.34 12.01 19.68 11.02 19 10 C19 10.99 19 11.98 19 13 C18.19175781 12.79503906 17.38351563 12.59007813 16.55078125 12.37890625 C15.48214844 12.10949219 14.41351563 11.84007813 13.3125 11.5625 C12.25675781 11.29566406 11.20101562 11.02882813 10.11328125 10.75390625 C7.4171683 10.10102068 4.7242424 9.52058807 2 9 C1.34 6.03 0.68 3.06 0 0 Z " fill="#6ACCEF" transform="translate(53,86)"/>
<path d="M0 0 C0.99 0 1.98 0 3 0 C3.433125 0.7425 3.86625 1.485 4.3125 2.25 C6.42629046 5.69469557 8.44107522 7.11586335 12 9 C15.25177852 9.33594133 15.25177852 9.33594133 18 9 C17.67 9.99 17.34 10.98 17 12 C19.97 12 22.94 12 26 12 C26.33 12.66 26.66 13.32 27 14 C18.72112103 14.8278879 12.9379291 12.52687572 6 8 C3.57658588 5.77966527 1.91035953 3.70634267 0 1 C0 0.67 0 0.34 0 0 Z " fill="#76C9E4" transform="translate(3,152)"/>
<path d="M0 0 C3.15335894 2.44700653 3.94371901 3.66087096 4.609375 7.671875 C4.67532564 9.03045815 4.72172254 10.39011102 4.75 11.75 C4.77964844 12.44738281 4.80929688 13.14476563 4.83984375 13.86328125 C4.91018458 15.57490813 4.95739946 17.28745815 5 19 C3.6078125 19.680625 3.6078125 19.680625 2.1875 20.375 C-1.03921389 21.9421633 -1.03921389 21.9421633 -4 24 C-6.1875 23.625 -6.1875 23.625 -8 23 C-6.63875 22.443125 -6.63875 22.443125 -5.25 21.875 C-1.39306571 19.6498456 0.04316287 17.98893723 2 14 C2.80297352 8.97137835 1.88692184 4.7173046 0 0 Z " fill="#74CDE9" transform="translate(166,72)"/>
<path d="M0 0 C1.32 0 2.64 0 4 0 C3.95875 0.763125 3.9175 1.52625 3.875 2.3125 C3.77919176 5.22718416 3.77919176 5.22718416 6 8 C5.29875 7.690625 4.5975 7.38125 3.875 7.0625 C-2.12266715 4.84597084 -5.91162363 4.92995204 -12 7 C-12 6.34 -12 5.68 -12 5 C-8.93753253 3.21590198 -6.77920727 2.77119979 -3.25 2.875 C-2.45078125 2.89304687 -1.6515625 2.91109375 -0.828125 2.9296875 C-0.22484375 2.95289062 0.3784375 2.97609375 1 3 C0.67 2.01 0.34 1.02 0 0 Z " fill="#72C8E8" transform="translate(159,63)"/>
<path d="M0 0 C0.5775 0.763125 1.155 1.52625 1.75 2.3125 C4.44217928 5.52815859 6.38375435 7.67919973 10.578125 8.51171875 C11.90070313 8.59873047 11.90070313 8.59873047 13.25 8.6875 C14.14203125 8.75324219 15.0340625 8.81898437 15.953125 8.88671875 C16.62859375 8.92410156 17.3040625 8.96148437 18 9 C18 9.33 18 9.66 18 10 C16.2709226 10.02725341 14.54171824 10.04650987 12.8125 10.0625 C11.36810547 10.07990234 11.36810547 10.07990234 9.89453125 10.09765625 C7.14423487 10.00486622 4.67520409 9.62111685 2 9 C1.34 6.03 0.68 3.06 0 0 Z " fill="#75C8E3" transform="translate(53,86)"/>
<path d="M0 0 C2.19726562 1.85546875 2.19726562 1.85546875 4.39453125 3.7109375 C5.8655046 4.89201099 7.43037794 5.95358529 9 7 C9 7.99 9 8.98 9 10 C7.35 9.67 5.7 9.34 4 9 C3.67 9.66 3.34 10.32 3 11 C3.33 9.02 3.66 7.04 4 5 C3.01 4.67 2.02 4.34 1 4 C0.3125 1.9375 0.3125 1.9375 0 0 Z " fill="#6FCBEB" transform="translate(99,89)"/>
<path d="M0 0 C1.32 0 2.64 0 4 0 C4.33 2.31 4.66 4.62 5 7 C4.01 7 3.02 7 2 7 C0.5393715 4.35261084 0 3.10551666 0 0 Z " fill="#6FCBEB" transform="translate(0,144)"/>
<path d="M0 0 C0.66 0.33 1.32 0.66 2 1 C3.49044586 7.87898089 3.49044586 7.87898089 1.6875 12 C1.130625 12.66 0.57375 13.32 0 14 C-0.66 14 -1.32 14 -2 14 C-1.7834375 12.86111328 -1.7834375 12.86111328 -1.5625 11.69921875 C-1.2840625 10.20841797 -1.2840625 10.20841797 -1 8.6875 C-0.814375 7.70136719 -0.62875 6.71523437 -0.4375 5.69921875 C0.07999796 2.96218195 0.07999796 2.96218195 0 0 Z " fill="#73C2E8" transform="translate(80,77)"/>
<path d="M0 0 C0.66 0.33 1.32 0.66 2 1 C-1.32307692 4.93846154 -1.32307692 4.93846154 -4.75 5.25 C-5.4925 5.1675 -6.235 5.085 -7 5 C-6.67 3.68 -6.34 2.36 -6 1 C-4.68 1.66 -3.36 2.32 -2 3 C-2 2.34 -2 1.68 -2 1 C-1.34 0.67 -0.68 0.34 0 0 Z " fill="#78CCED" transform="translate(40,200)"/>
<path d="M0 0 C-4.75 4.875 -4.75 4.875 -7 6 C-7.33 4.35 -7.66 2.7 -8 1 C-5.29120665 -0.35439668 -2.99066732 -0.06501451 0 0 Z " fill="#6EC6E9" transform="translate(79,170)"/>
<path d="M0 0 C0.33 0 0.66 0 1 0 C0.56179109 4.55737263 0.14958831 7.57653445 -3 11 C-2.25 3.375 -2.25 3.375 0 0 Z " fill="#75C5DF" transform="translate(221,142)"/>
<path d="M0 0 C0.66 0.33 1.32 0.66 2 1 C1.319375 1.61875 1.319375 1.61875 0.625 2.25 C-1.05950374 4.06408095 -1.99265971 5.75285627 -3 8 C-3.99 7.67 -4.98 7.34 -6 7 C-4.02 4.69 -2.04 2.38 0 0 Z " fill="#77C5E1" transform="translate(9,5)"/>
<path d="M0 0 C-2.64 1.98 -5.28 3.96 -8 6 C-7.75 3.625 -7.75 3.625 -7 1 C-4.12732844 -1.10662581 -3.46720491 -1.15573497 0 0 Z " fill="#73C9E4" transform="translate(53,192)"/>
<path d="" fill="#FFFFFF" transform="translate(0,0)"/>
<path d="" fill="#FFFFFF" transform="translate(0,0)"/>
<path d="" fill="#FFFFFF" transform="translate(0,0)"/>
<path d="" fill="#FFFFFF" transform="translate(0,0)"/>
<path d="" fill="#FFFFFF" transform="translate(0,0)"/>
</svg>
